<svg id="visual" viewBox="0 0 900 600" width="900" height="600" xmlns="http://www.w3.org/2000/svg" xmlns:xlink="http://www.w3.org/1999/xlink" version="1.1"><rect x="0" y="0" width="900" height="600" fill="#5BC0F8"></rect><path d="M0 203L16.7 201.7C33.3 200.3 66.7 197.7 100 220C133.3 242.3 166.7 289.7 200 298.8C233.3 308 266.7 279 300 269.2C333.3 259.3 366.7 268.7 400 280.5C433.3 292.3 466.7 306.7 500 303.8C533.3 301 566.7 281 600 282.2C633.3 283.3 666.7 305.7 700 313.3C733.3 321 766.7 314 800 307.3C833.3 300.7 866.7 294.3 883.3 291.2L900 288L900 601L883.3 601C866.7 601 833.3 601 800 601C766.7 601 733.3 601 700 601C666.7 601 633.3 601 600 601C566.7 601 533.3 601 500 601C466.7 601 433.3 601 400 601C366.7 601 333.3 601 300 601C266.7 601 233.3 601 200 601C166.7 601 133.3 601 100 601C66.7 601 33.3 601 16.7 601L0 601Z" fill="#2dcddf"></path><path d="M0 320L16.7 307.2C33.3 294.3 66.7 268.7 100 268.8C133.3 269 166.7 295 200 310.7C233.3 326.3 266.7 331.7 300 328.7C333.3 325.7 366.7 314.3 400 299.2C433.3 284 466.7 265 500 261.8C533.3 258.7 566.7 271.3 600 289.3C633.3 307.3 666.7 330.7 700 329.7C733.3 328.7 766.7 303.3 800 297.2C833.3 291 866.7 304 883.3 310.5L900 317L900 601L883.3 601C866.7 601 833.3 601 800 601C766.7 601 733.3 601 700 601C666.7 601 633.3 601 600 601C566.7 601 533.3 601 500 601C466.7 601 433.3 601 400 601C366.7 601 333.3 601 300 601C266.7 601 233.3 601 200 601C166.7 601 133.3 601 100 601C66.7 601 33.3 601 16.7 601L0 601Z" fill="#00c5e9"></path><path d="M0 297L16.7 308.3C33.3 319.7 66.7 342.3 100 351C133.3 359.7 166.7 354.3 200 342C233.3 329.7 266.7 310.3 300 312.3C333.3 314.3 366.7 337.7 400 352C433.3 366.3 466.7 371.7 500 364.7C533.3 357.7 566.7 338.3 600 342.8C633.3 347.3 666.7 375.7 700 377.8C733.3 380 766.7 356 800 351C833.3 346 866.7 360 883.3 367L900 374L900 601L883.3 601C866.7 601 833.3 601 800 601C766.7 601 733.3 601 700 601C666.7 601 633.3 601 600 601C566.7 601 533.3 601 500 601C466.7 601 433.3 601 400 601C366.7 601 333.3 601 300 601C266.7 601 233.3 601 200 601C166.7 601 133.3 601 100 601C66.7 601 33.3 601 16.7 601L0 601Z" fill="#00bbf2"></path><path d="M0 335L16.7 348.5C33.3 362 66.7 389 100 401.2C133.3 413.3 166.7 410.7 200 411.8C233.3 413 266.7 418 300 414.8C333.3 411.7 366.7 400.3 400 399.5C433.3 398.7 466.7 408.3 500 399.3C533.3 390.3 566.7 362.7 600 350.7C633.3 338.7 666.7 342.3 700 348.5C733.3 354.7 766.7 363.3 800 376.2C833.3 389 866.7 406 883.3 414.5L900 423L900 601L883.3 601C866.7 601 833.3 601 800 601C766.7 601 733.3 601 700 601C666.7 601 633.3 601 600 601C566.7 601 533.3 601 500 601C466.7 601 433.3 601 400 601C366.7 601 333.3 601 300 601C266.7 601 233.3 601 200 601C166.7 601 133.3 601 100 601C66.7 601 33.3 601 16.7 601L0 601Z" fill="#00b1f7"></path><path d="M0 438L16.7 430.7C33.3 423.3 66.7 408.7 100 411.8C133.3 415 166.7 436 200 438.7C233.3 441.3 266.7 425.7 300 415.7C333.3 405.7 366.7 401.3 400 398.5C433.3 395.7 466.7 394.3 500 391.8C533.3 389.3 566.7 385.7 600 395C633.3 404.3 666.7 426.7 700 440.7C733.3 454.7 766.7 460.3 800 458.2C833.3 456 866.7 446 883.3 441L900 436L900 601L883.3 601C866.7 601 833.3 601 800 601C766.7 601 733.3 601 700 601C666.7 601 633.3 601 600 601C566.7 601 533.3 601 500 601C466.7 601 433.3 601 400 601C366.7 601 333.3 601 300 601C266.7 601 233.3 601 200 601C166.7 601 133.3 601 100 601C66.7 601 33.3 601 16.7 601L0 601Z" fill="#00a5fa"></path><path d="M0 426L16.7 427.2C33.3 428.3 66.7 430.7 100 441C133.3 451.3 166.7 469.7 200 468.7C233.3 467.7 266.7 447.3 300 440.7C333.3 434 366.7 441 400 440.8C433.3 440.7 466.7 433.3 500 437.3C533.3 441.3 566.7 456.7 600 458C633.3 459.3 666.7 446.7 700 443.5C733.3 440.3 766.7 446.7 800 448C833.3 449.3 866.7 445.7 883.3 443.8L900 442L900 601L883.3 601C866.7 601 833.3 601 800 601C766.7 601 733.3 601 700 601C666.7 601 633.3 601 600 601C566.7 601 533.3 601 500 601C466.7 601 433.3 601 400 601C366.7 601 333.3 601 300 601C266.7 601 233.3 601 200 601C166.7 601 133.3 601 100 601C66.7 601 33.3 601 16.7 601L0 601Z" fill="#0097fb"></path><path d="M0 480L16.7 489.3C33.3 498.7 66.7 517.3 100 516.2C133.3 515 166.7 494 200 484.8C233.3 475.7 266.7 478.3 300 480.8C333.3 483.3 366.7 485.7 400 493C433.3 500.3 466.7 512.7 500 511.5C533.3 510.3 566.7 495.7 600 492.5C633.3 489.3 666.7 497.7 700 497.5C733.3 497.3 766.7 488.7 800 493.3C833.3 498 866.7 516 883.3 525L900 534L900 601L883.3 601C866.7 601 833.3 601 800 601C766.7 601 733.3 601 700 601C666.7 601 633.3 601 600 601C566.7 601 533.3 601 500 601C466.7 601 433.3 601 400 601C366.7 601 333.3 601 300 601C266.7 601 233.3 601 200 601C166.7 601 133.3 601 100 601C66.7 601 33.3 601 16.7 601L0 601Z" fill="#1589fa"></path><path d="M0 565L16.7 557.5C33.3 550 66.7 535 100 532.3C133.3 529.7 166.7 539.3 200 543.7C233.3 548 266.7 547 300 544.7C333.3 542.3 366.7 538.7 400 538.3C433.3 538 466.7 541 500 544.8C533.3 548.7 566.7 553.3 600 551.2C633.3 549 666.7 540 700 538.5C733.3 537 766.7 543 800 542.5C833.3 542 866.7 535 883.3 531.5L900 528L900 601L883.3 601C866.7 601 833.3 601 800 601C766.7 601 733.3 601 700 601C666.7 601 633.3 601 600 601C566.7 601 533.3 601 500 601C466.7 601 433.3 601 400 601C366.7 601 333.3 601 300 601C266.7 601 233.3 601 200 601C166.7 601 133.3 601 100 601C66.7 601 33.3 601 16.7 601L0 601Z" fill="#3c79f5"></path></svg>